<svg xmlns="http://www.w3.org/2000/svg" viewBox="0 0 1300.97 115.992"><defs><style>.cls-1{fill:#f2f2f2;}</style></defs><title>Asset 1</title><g id="Layer_2" data-name="Layer 2"><g id="Layer_1-2" data-name="Layer 1"><path class="cls-1" d="M1152.335,5.078c-36.982,0-71.351,13.9-99.918,37.738a27.23,27.23,0,0,1-34.8,0C989.047,18.982,954.677,5.078,917.7,5.078c-43.212,0-82.859,18.984-113.847,50.611a27.424,27.424,0,0,1-38.578.511C735.01,27.323,697.15,10.156,656.063,10.156c-35.023,0-67.7,12.473-95.329,34.039a27.583,27.583,0,0,1-35.578-1.317C495.48,15.918,458.91,0,419.347,0c-42.93,0-82.342,18.735-113.241,49.991a27.579,27.579,0,0,1-39.3,0C235.9,18.735,196.491,0,153.561,0,88.48,0,31.5,43.07,0,107.534a67.286,67.286,0,0,1,25.208-3.74c52.367.027,104.7,2.182,157.044,3.255q12.682.259,25.365.452,21.761-.474,43.529-.559,45.6-.186,91.184,1.134,60-.387,120.008-1.739c44.42-.973,88.83-3.051,133.26-3.451,48.407-.437,96.48,2.417,144.256,10.249a68.725,68.725,0,0,1,17.451-1.528c39.566-3.374,79.289-4.109,118.982-3.851,70.5.459,141.007,2.445,211.5,3.628,35.461.595,70.964,1.437,106.342,4.08,33.163,2.478,66.19-4.734,99.321-1.928,1.359,0,2.706.048,4.049.109.071-.271.152-.539.223-.812a77.632,77.632,0,0,1,3.25-9.8C1268.654,43.916,1214.143,5.078,1152.335,5.078Z"/></g></g></svg>