<svg xmlns="http://www.w3.org/2000/svg" xmlns:xlink="http://www.w3.org/1999/xlink" viewBox="0 0 1370.206 767"><defs><style>.cls-1{fill:url(#linear-gradient);}</style><linearGradient id="linear-gradient" x1="69.797" y1="-69.797" x2="1138.547" y2="998.953" gradientUnits="userSpaceOnUse"><stop offset="0" stop-color="#070e14"/><stop offset="0.22" stop-color="#061d21"/><stop offset="0.64" stop-color="#034443"/><stop offset="1" stop-color="#006a65"/></linearGradient></defs><title>Asset 2</title><g id="Layer_2" data-name="Layer 2"><g id="Layer_1-2" data-name="Layer 1"><path class="cls-1" d="M1368.5,371c7.018-162-265.679-121-430.1-139S743.9,2,743.9,2L0,0V767H63.611a66.785,66.785,0,0,1,30.149-5.706c52.366.027,104.7,2.182,157.044,3.255q12.812.263,25.623.456,21.631-.47,43.271-.563,45.476-.185,90.928,1.135,60.128-.384,120.264-1.74c44.42-.973,88.83-3.051,133.26-3.451A873.034,873.034,0,0,1,783.423,767h73.028c29.429-1.577,58.917-1.936,88.388-1.744,38.544.251,77.09.961,115.636,1.744h306.747a77.933,77.933,0,0,1,2.984-8.088C1368.709,716.4,1362.249,515.182,1368.5,371Z"/></g></g></svg>