<svg xmlns="http://www.w3.org/2000/svg" viewBox="0 0 719 1533"><defs><style>.cls-1{fill:#fff4de;}</style></defs><title>Asset 3</title><g id="Layer_2" data-name="Layer 2"><g id="Layer_1-2" data-name="Layer 1"><path class="cls-1" d="M666.889,0H494.214A1.792,1.792,0,0,1,496,1.786V72.214A1.792,1.792,0,0,1,494.214,74H227.786A1.792,1.792,0,0,1,226,72.214V1.786A1.792,1.792,0,0,1,227.786,0H52.111A52.264,52.264,0,0,0,0,52.111V1480.889A52.264,52.264,0,0,0,52.111,1533H666.889A52.264,52.264,0,0,0,719,1480.889V52.111A52.264,52.264,0,0,0,666.889,0Z"/></g></g></svg>